<svg xmlns="http://www.w3.org/2000/svg" xml:space="preserve" width="512px" height="512px" version="1.1" style="shape-rendering:geometricPrecision; text-rendering:geometricPrecision; image-rendering:optimizeQuality; fill-rule:evenodd; clip-rule:evenodd" viewBox="0 0 512 512" xmlns:xlink="http://www.w3.org/1999/xlink" xmlns:xodm="http://www.corel.com/coreldraw/odm/2003">
 <defs>
  <style type="text/css">
   
    .fil1 {fill:#00CCFF}
    .fil0 {fill:#1B74B9}
    .fil2 {fill:#F9F9F9}
   
  </style>
 </defs>
 <g id="Layer_x0020_1">
  <metadata id="CorelCorpID_0Corel-Layer"></metadata>
  <path class="fil0" d="M487.74 170.68l-3.92 -1.2 -45.25 -30.53c-7.49,-5.04 0.34,-16.64 7.82,-11.59l24.6 16.59c-41.42,-79.59 -123.14,-129.81 -214.42,-129.81 -99.54,0 -187.73,59.72 -224.67,152.14 -3.35,8.38 -16.34,3.19 -12.99,-5.19 60.75,-152.07 247.78,-208.96 382.77,-115.83 34.16,23.56 61.78,54.63 80.97,90.83l1.92 -27.35c0.62,-9 14.58,-8.03 13.95,0.97 -0.54,7.76 -2.85,53.91 -4.63,57.3 -0.81,1.54 -2.24,2.73 -3.88,3.29l0 0 -2.27 0.38zm-231.17 163.68c-43.21,0 -78.36,-35.16 -78.36,-78.36 0,-43.21 35.15,-78.36 78.36,-78.36 43.2,0 78.36,35.15 78.36,78.36 0,43.2 -35.16,78.36 -78.36,78.36zm0 -142.73c-35.49,0 -64.37,28.88 -64.37,64.37 0,35.49 28.88,64.36 64.37,64.36 35.49,0 64.36,-28.87 64.36,-64.36 0,-35.49 -28.87,-64.37 -64.36,-64.37zm37.75 247.63l-75.5 0c-3.86,0 -7,-3.14 -7,-7l0 -56.93c-13.16,-4.93 -25.3,-11.95 -36.19,-20.93l-49.33 28.48c-3.35,1.93 -7.63,0.79 -9.56,-2.56l-37.75 -65.39c-1.93,-3.34 -0.79,-7.62 2.56,-9.56l49.31 -28.46c-2.27,-13.78 -2.27,-28.04 0,-41.82l-49.31 -28.47c-3.3,-1.91 -4.47,-6.26 -2.56,-9.56l37.75 -65.38c1.93,-3.35 6.21,-4.5 9.56,-2.57l49.33 28.48c10.89,-8.98 23.03,-16 36.19,-20.92l0 -56.93c0,-3.87 3.14,-7 7,-7l75.5 0c3.87,0 7,3.13 7,7l0 56.93c13.16,4.92 25.3,11.94 36.2,20.92l49.33 -28.48c3.34,-1.93 7.62,-0.78 9.55,2.57l37.75 65.38c1.91,3.3 0.74,7.65 -2.56,9.56l-49.31 28.47c2.27,13.78 2.27,28.04 0,41.82l49.31 28.46c3.3,1.91 4.47,6.26 2.56,9.56l-37.75 65.39c-1.9,3.3 -6.25,4.47 -9.56,2.56l-49.32 -28.48c-10.89,8.98 -23.03,16 -36.2,20.93l0 56.93c0,3.86 -3.13,7 -7,7zm-68.5 -13.99l61.51 0 0 -54.89c0,-10.58 17.07,-5.02 44.74,-29.73 2.25,-2.02 5.53,-2.35 8.15,-0.84l47.56 27.46 30.76 -53.27 -47.54 -27.45c-8.79,-5.08 3.92,-18.46 -3.35,-53.63 -0.61,-2.95 0.74,-5.97 3.35,-7.47l47.54 -27.45 -30.76 -53.27 -47.56 27.46c-9.17,5.3 -13,-12.35 -48.09,-23.92 -2.87,-0.95 -4.8,-3.63 -4.8,-6.65l0 -54.89 -61.51 0 0 54.89c0,10.57 -17.07,5.04 -44.74,29.73 -2.26,2.01 -5.54,2.35 -8.16,0.84l-47.56 -27.46 -30.76 53.27 47.54 27.44c8.8,5.08 -3.92,18.48 3.35,53.64 0.61,2.95 -0.74,5.96 -3.35,7.47l-47.53 27.44 30.75 53.28 47.56 -27.46c9.18,-5.3 12.98,12.35 48.09,23.92 2.87,0.95 4.81,3.63 4.81,6.65l0 54.89zm30.75 86.58c-94.85,0 -182.66,-53.24 -226.57,-136.87l-2.58 28.34c-0.82,9.09 -14.76,7.79 -13.93,-1.27 0.68,-7.42 4.05,-52.97 5.42,-56.33 1.73,-4.27 7.01,-5.67 10.68,-3.01l44.45 31.36c7.38,5.2 -0.69,16.64 -8.06,11.43l-23.3 -16.43c41.6,79 123.01,128.79 213.89,128.79 99.54,0 187.73,-59.72 224.67,-152.14 3.35,-8.39 16.34,-3.19 12.99,5.19 -38.68,96.74 -133.29,160.94 -237.66,160.94z" id="id_113" style="fill: rgb(109, 232, 226);"></path>
  <path class="fil1" d="M418.54 198l-30.76 -53.27 -47.56 27.46c-9.17,5.3 -13,-12.35 -48.09,-23.92 -2.87,-0.95 -4.8,-3.63 -4.8,-6.65l0 -54.89 -61.51 0 0 54.89c0,10.57 -17.07,5.04 -44.74,29.73 -2.26,2.01 -5.54,2.35 -8.16,0.84l-47.56 -27.46 -30.76 53.27 47.54 27.44c8.8,5.08 -3.92,18.48 3.35,53.64 0.61,2.95 -0.74,5.96 -3.35,7.47l-47.53 27.44 30.75 53.28 47.56 -27.46c9.18,-5.3 12.98,12.35 48.09,23.92 2.87,0.95 4.81,3.63 4.81,6.65l0 54.89 61.51 0 0 -54.89c0,-10.58 17.07,-5.02 44.74,-29.73 2.25,-2.02 5.53,-2.35 8.15,-0.84l47.56 27.46 30.76 -53.27 -47.54 -27.45c-8.79,-5.08 3.92,-18.46 -3.35,-53.63 -0.61,-2.95 0.74,-5.97 3.35,-7.47l47.54 -27.45zm-161.97 -20.36c43.2,0 78.36,35.15 78.36,78.36 0,43.2 -35.16,78.36 -78.36,78.36 -43.21,0 -78.36,-35.16 -78.36,-78.36 0,-43.21 35.15,-78.36 78.36,-78.36z" id="id_114"></path>
  <path class="fil2" d="M320.93 256c0,-35.49 -28.87,-64.37 -64.36,-64.37 -35.49,0 -64.37,28.88 -64.37,64.37 0,35.49 28.88,64.36 64.37,64.36 35.49,0 64.36,-28.87 64.36,-64.36z" id="id_115"></path>
 </g>
</svg>